<?xml version="1.0" encoding="UTF-8" standalone="no"?>
<!-- Created with Inkscape (http://www.inkscape.org/) -->

<svg
   xmlns:dc="http://purl.org/dc/elements/1.1/"
   xmlns:cc="http://creativecommons.org/ns#"
   xmlns:rdf="http://www.w3.org/1999/02/22-rdf-syntax-ns#"
   xmlns:svg="http://www.w3.org/2000/svg"
   xmlns="http://www.w3.org/2000/svg"
   xmlns:sodipodi="http://sodipodi.sourceforge.net/DTD/sodipodi-0.dtd"
   xmlns:inkscape="http://www.inkscape.org/namespaces/inkscape"
   version="1.1"
   id="svg3732"
   xml:space="preserve"
   width="1600"
   height="1600"
   viewBox="0 0 1600 1600"
   sodipodi:docname="DigitreeLogoNoCaption.svg"
   inkscape:version="0.92.5 (0.92.5+69)"
   inkscape:export-filename="/home/kbalam/Downloads/22_Digital Tree Cloud Networking Logo/DigiTreeLogo.png"
   inkscape:export-xdpi="96"
   inkscape:export-ydpi="96"><metadata
     id="metadata3738"><rdf:RDF><cc:Work
         rdf:about=""><dc:format>image/svg+xml</dc:format><dc:type
           rdf:resource="http://purl.org/dc/dcmitype/StillImage" /><dc:title /></cc:Work></rdf:RDF></metadata><defs
     id="defs3736"><clipPath
       clipPathUnits="userSpaceOnUse"
       id="clipPath3748"><path
         d="M 0,1200 H 1200 V 0 H 0 Z"
         id="path3746"
         inkscape:connector-curvature="0" /></clipPath><clipPath
       clipPathUnits="userSpaceOnUse"
       id="clipPath3756"><path
         d="M -11,1215 H 1215 V -11 H -11 Z"
         id="path3754"
         inkscape:connector-curvature="0" /></clipPath><clipPath
       clipPathUnits="userSpaceOnUse"
       id="clipPath3760"><path
         d="M 1215,-11 H -11 v 1226 h 1226 z"
         id="path3758"
         inkscape:connector-curvature="0" /></clipPath><radialGradient
       fx="0"
       fy="0"
       cx="0"
       cy="0"
       r="1"
       gradientUnits="userSpaceOnUse"
       gradientTransform="matrix(698,-704,-704,-698,589,671)"
       spreadMethod="pad"
       id="radialGradient3770"><stop
         style="stop-opacity:1;stop-color:#ffffff"
         offset="0"
         id="stop3762" /><stop
         style="stop-opacity:1;stop-color:#ffffff"
         offset="0.159359"
         id="stop3764" /><stop
         style="stop-opacity:1;stop-color:#ffffff"
         offset="0.67902582"
         id="stop3766" /><stop
         style="stop-opacity:1;stop-color:#231f20"
         offset="1"
         id="stop3768" /></radialGradient><clipPath
       clipPathUnits="userSpaceOnUse"
       id="clipPath3828"><path
         d="M 0,1200 H 1200 V 0 H 0 Z"
         id="path3826"
         inkscape:connector-curvature="0" /></clipPath><clipPath
       clipPathUnits="userSpaceOnUse"
       id="clipPath3924"><path
         d="M 0,1200 H 1200 V 0 H 0 Z"
         id="path3922"
         inkscape:connector-curvature="0" /></clipPath><clipPath
       clipPathUnits="userSpaceOnUse"
       id="clipPath3932"><path
         d="M 403.967,103.97 H 783.832 V 69.1938 H 403.967 Z"
         id="path3930"
         inkscape:connector-curvature="0" /></clipPath></defs><sodipodi:namedview
     pagecolor="#ffffff"
     bordercolor="#666666"
     borderopacity="1"
     objecttolerance="10"
     gridtolerance="10"
     guidetolerance="10"
     inkscape:pageopacity="0"
     inkscape:pageshadow="2"
     inkscape:window-width="1920"
     inkscape:window-height="1015"
     id="namedview3734"
     showgrid="false"
     inkscape:zoom="0.516875"
     inkscape:cx="86.094317"
     inkscape:cy="800"
     inkscape:window-x="3881"
     inkscape:window-y="555"
     inkscape:window-maximized="1"
     inkscape:current-layer="g3740" /><g
     id="g3740"
     inkscape:groupmode="layer"
     inkscape:label="Digital Tree Cloud Networking Logo"
     transform="matrix(1.3333333,0,0,-1.3333333,0,1600)"><g
       id="g3786"
       transform="translate(784.6478,707.8591)"
       inkscape:export-xdpi="96"
       inkscape:export-ydpi="96"><path
         d="M 0,0 13.073,144.4 66.852,67.743 0,0 l -106.071,61.503 -88.244,72.2 -110.528,-51.698 -69.526,-89.136 -80.222,7.131 19.147,96.251"
         style="fill:none;stroke:#0077c0;stroke-width:7.13100004;stroke-linecap:round;stroke-linejoin:round;stroke-miterlimit:10;stroke-dasharray:none;stroke-opacity:1"
         id="path3788"
         inkscape:connector-curvature="0" /></g><g
       id="g3790"
       transform="translate(678.5765,769.3626)"
       inkscape:export-xdpi="96"
       inkscape:export-ydpi="96"><path
         d="M 0,0 22.284,129.247 -88.244,72.2"
         style="fill:none;stroke:#0077c0;stroke-width:7.13100004;stroke-linecap:round;stroke-linejoin:round;stroke-miterlimit:10;stroke-dasharray:none;stroke-opacity:1"
         id="path3792"
         inkscape:connector-curvature="0" /></g><g
       id="g3794"
       transform="translate(493.2439,775.6245)"
       inkscape:export-xdpi="96"
       inkscape:export-ydpi="96"><path
         d="M 0,0 74.9,-53.386"
         style="fill:none;stroke:#0077c0;stroke-width:7.13100004;stroke-linecap:round;stroke-linejoin:round;stroke-miterlimit:10;stroke-dasharray:none;stroke-opacity:1"
         id="path3796"
         inkscape:connector-curvature="0" /></g><g
       id="g3798"
       transform="translate(410.2786,700.7283)"
       inkscape:export-xdpi="96"
       inkscape:export-ydpi="96"><path
         d="M 0,0 53.481,-44.568"
         style="fill:none;stroke:#0077c0;stroke-width:7.13100004;stroke-linecap:round;stroke-linejoin:round;stroke-miterlimit:10;stroke-dasharray:none;stroke-opacity:1"
         id="path3800"
         inkscape:connector-curvature="0" /></g><g
       id="g3802"
       transform="translate(502.9795,654.3778)"
       inkscape:export-xdpi="96"
       inkscape:export-ydpi="96"><path
         d="M 0,0 64.178,37.437"
         style="fill:none;stroke:#0077c0;stroke-width:7.13100004;stroke-linecap:round;stroke-linejoin:round;stroke-miterlimit:10;stroke-dasharray:none;stroke-opacity:1"
         id="path3804"
         inkscape:connector-curvature="0" /></g><g
       id="g3806"
       transform="translate(608.1594,729.2516)"
       inkscape:export-xdpi="96"
       inkscape:export-ydpi="96"><path
         d="m 0,0 70.417,40.111 119.145,82.896 -105.775,42.785 -103.991,59.424 2.377,-112.905 -92.701,71.308 -17.827,-123.007 -109.209,19.595 27.204,98.064 82.005,-117.659"
         style="fill:none;stroke:#0077c0;stroke-width:7.13100004;stroke-linecap:round;stroke-linejoin:round;stroke-miterlimit:10;stroke-dasharray:none;stroke-opacity:1"
         id="path3808"
         inkscape:connector-curvature="0" /></g><g
       id="g3810"
       transform="translate(617.073,691.8148)"
       inkscape:export-xdpi="96"
       inkscape:export-ydpi="96"><path
         d="M 0,0 58.829,-39.22"
         style="fill:none;stroke:#0077c0;stroke-width:7.13100004;stroke-linecap:round;stroke-linejoin:round;stroke-miterlimit:10;stroke-dasharray:none;stroke-opacity:1"
         id="path3812"
         inkscape:connector-curvature="0" /></g><g
       id="g3814"
       transform="translate(718.6875,654.3778)"
       inkscape:export-xdpi="96"
       inkscape:export-ydpi="96"><path
         d="M 0,0 57.047,42.785"
         style="fill:none;stroke:#0077c0;stroke-width:7.13100004;stroke-linecap:round;stroke-linejoin:round;stroke-miterlimit:10;stroke-dasharray:none;stroke-opacity:1"
         id="path3816"
         inkscape:connector-curvature="0" /></g><g
       id="g3818"
       transform="translate(397.7996,900.3918)"
       inkscape:export-xdpi="96"
       inkscape:export-ydpi="96"><path
         d="m 0,0 102.506,0.891 87.65,53.185"
         style="fill:none;stroke:#0077c0;stroke-width:7.13100004;stroke-linecap:round;stroke-linejoin:round;stroke-miterlimit:10;stroke-dasharray:none;stroke-opacity:1"
         id="path3820"
         inkscape:connector-curvature="0" /></g><g
       id="g3822"
       inkscape:export-xdpi="96"
       inkscape:export-ydpi="96"><g
         id="g3824"
         clip-path="url(#clipPath3828)"><g
           id="g3830"
           transform="translate(617.073,841.5624)"><path
             d="m 0,0 c 0,-14.768 -11.972,-26.741 -26.741,-26.741 -14.768,0 -26.74,11.973 -26.74,26.741 0,14.768 11.972,26.741 26.74,26.741 C -11.972,26.741 0,14.768 0,0"
             style="fill:#0a77be;fill-opacity:1;fill-rule:nonzero;stroke:none"
             id="path3832"
             inkscape:connector-curvature="0" /></g><g
           id="g3834"
           transform="translate(870.2179,775.6021)"><path
             d="m 0,0 c 0,-10.338 -8.381,-18.718 -18.719,-18.718 -10.337,0 -18.718,8.38 -18.718,18.718 0,10.338 8.381,18.718 18.718,18.718 C -8.381,18.718 0,10.338 0,0"
             style="fill:#4c4099;fill-opacity:1;fill-rule:nonzero;stroke:none"
             id="path3836"
             inkscape:connector-curvature="0" /></g><g
           id="g3838"
           transform="translate(348.7751,707.8591)"><path
             d="m 0,0 c 0,-10.338 -8.381,-18.718 -18.718,-18.718 -10.338,0 -18.719,8.38 -18.719,18.718 0,10.338 8.381,18.718 18.719,18.718 C -8.381,18.718 0,10.338 0,0"
             style="fill:#009d96;fill-opacity:1;fill-rule:nonzero;stroke:none"
             id="path3840"
             inkscape:connector-curvature="0" /></g><g
           id="g3842"
           transform="translate(437.0192,700.7283)"><path
             d="m 0,0 c 0,-14.768 -11.972,-26.741 -26.741,-26.741 -14.768,0 -26.74,11.973 -26.74,26.741 0,14.768 11.972,26.741 26.74,26.741 C -11.972,26.741 0,14.768 0,0"
             style="fill:#0a77be;fill-opacity:1;fill-rule:nonzero;stroke:none"
             id="path3844"
             inkscape:connector-curvature="0" /></g><g
           id="g3846"
           transform="translate(614.696,954.4674)"><path
             d="m 0,0 c 0,-14.768 -11.972,-26.741 -26.741,-26.741 -14.768,0 -26.74,11.973 -26.74,26.741 0,14.768 11.972,26.741 26.74,26.741 C -11.972,26.741 0,14.768 0,0"
             style="fill:#f99c1b;fill-opacity:1;fill-rule:nonzero;stroke:none"
             id="path3848"
             inkscape:connector-curvature="0" /></g><g
           id="g3850"
           transform="translate(511.8931,786.2984)"><path
             d="m 0,0 c 0,-21.66 -17.559,-39.22 -39.22,-39.22 -21.66,0 -39.219,17.56 -39.219,39.22 0,21.66 17.559,39.22 39.219,39.22 C -17.559,39.22 0,21.66 0,0"
             style="fill:#009d96;fill-opacity:1;fill-rule:nonzero;stroke:none"
             id="path3852"
             inkscape:connector-curvature="0" /></g><g
           id="g3854"
           transform="translate(397.3366,807.6755)"><path
             d="m 0,0 c 0,-21.66 -17.559,-39.22 -39.22,-39.22 -21.66,0 -39.219,17.56 -39.219,39.22 0,21.66 17.559,39.22 39.219,39.22 C -17.559,39.22 0,21.66 0,0"
             style="fill:#68ad45;fill-opacity:1;fill-rule:nonzero;stroke:none"
             id="path3856"
             inkscape:connector-curvature="0" /></g><g
           id="g3858"
           transform="translate(823.8674,707.8591)"><path
             d="m 0,0 c 0,-21.66 -17.559,-39.22 -39.22,-39.22 -21.66,0 -39.219,17.56 -39.219,39.22 0,21.66 17.559,39.22 39.219,39.22 C -17.559,39.22 0,21.66 0,0"
             style="fill:#0a77be;fill-opacity:1;fill-rule:nonzero;stroke:none"
             id="path3860"
             inkscape:connector-curvature="0" /></g><g
           id="g3862"
           transform="translate(725.8183,895.0437)"><path
             d="m 0,0 c 0,-18.707 -15.165,-33.871 -33.871,-33.871 -18.707,0 -33.872,15.164 -33.872,33.871 0,18.707 15.165,33.872 33.872,33.872 C -15.165,33.872 0,18.707 0,0"
             style="fill:#ef4123;fill-opacity:1;fill-rule:nonzero;stroke:none"
             id="path3864"
             inkscape:connector-curvature="0" /></g><g
           id="g3866"
           transform="translate(709.7739,769.3626)"><path
             d="m 0,0 c 0,-17.23 -13.968,-31.197 -31.197,-31.197 -17.23,0 -31.198,13.967 -31.198,31.197 0,17.23 13.968,31.197 31.198,31.197 C -13.968,31.197 0,17.23 0,0"
             style="fill:#4c4099;fill-opacity:1;fill-rule:nonzero;stroke:none"
             id="path3868"
             inkscape:connector-curvature="0" /></g><g
           id="g3870"
           transform="translate(531.5029,901.2832)"><path
             d="m 0,0 c 0,-17.23 -13.968,-31.197 -31.197,-31.197 -17.23,0 -31.198,13.967 -31.198,31.197 0,17.23 13.968,31.197 31.198,31.197 C -13.968,31.197 0,17.23 0,0"
             style="fill:#68ad45;fill-opacity:1;fill-rule:nonzero;stroke:none"
             id="path3872"
             inkscape:connector-curvature="0" /></g><g
           id="g3874"
           transform="translate(822.6789,852.2587)"><path
             d="m 0,0 c 0,-13.784 -11.174,-24.958 -24.958,-24.958 -13.784,0 -24.958,11.174 -24.958,24.958 0,13.784 11.174,24.958 24.958,24.958 C -11.174,24.958 0,13.784 0,0"
             style="fill:#c6168d;fill-opacity:1;fill-rule:nonzero;stroke:none"
             id="path3876"
             inkscape:connector-curvature="0" /></g><g
           id="g3878"
           transform="translate(422.7575,900.3918)"><path
             d="m 0,0 c 0,-13.784 -11.174,-24.958 -24.958,-24.958 -13.784,0 -24.958,11.174 -24.958,24.958 0,13.784 11.174,24.958 24.958,24.958 C -11.174,24.958 0,13.784 0,0"
             style="fill:#b3c235;fill-opacity:1;fill-rule:nonzero;stroke:none"
             id="path3880"
             inkscape:connector-curvature="0" /></g><g
           id="g3882"
           transform="translate(634.9001,452.9315)"><path
             d="m 0,0 v 123.007 l 39.22,37.437"
             style="fill:none;stroke:#009d96;stroke-width:24.95800018;stroke-linecap:round;stroke-linejoin:round;stroke-miterlimit:10;stroke-dasharray:none;stroke-opacity:1"
             id="path3884"
             inkscape:connector-curvature="0" /></g><g
           id="g3886"
           transform="translate(724.0356,636.5507)"><path
             d="m 0,0 c 0,-14.768 -11.972,-26.741 -26.741,-26.741 -14.768,0 -26.74,11.973 -26.74,26.741 0,14.768 11.972,26.741 26.74,26.741 C -11.972,26.741 0,14.768 0,0 Z"
             style="fill:none;stroke:#009d96;stroke-width:17.82699966;stroke-linecap:round;stroke-linejoin:round;stroke-miterlimit:10;stroke-dasharray:none;stroke-opacity:1"
             id="path3888"
             inkscape:connector-curvature="0" /></g><g
           id="g3890"
           transform="translate(545.7646,452.9315)"><path
             d="m 0,0 v 123.007 l -39.22,37.437"
             style="fill:none;stroke:#4c4099;stroke-width:24.95800018;stroke-linecap:round;stroke-linejoin:round;stroke-miterlimit:10;stroke-dasharray:none;stroke-opacity:1"
             id="path3892"
             inkscape:connector-curvature="0" /></g><g
           id="g3894"
           transform="translate(510.1104,636.5507)"><path
             d="m 0,0 c 0,-14.768 -11.972,-26.741 -26.741,-26.741 -14.768,0 -26.74,11.973 -26.74,26.741 0,14.768 11.972,26.741 26.74,26.741 C -11.972,26.741 0,14.768 0,0 Z"
             style="fill:none;stroke:#4c4099;stroke-width:17.82699966;stroke-linecap:round;stroke-linejoin:round;stroke-miterlimit:10;stroke-dasharray:none;stroke-opacity:1"
             id="path3896"
             inkscape:connector-curvature="0" /></g><g
           id="g3898"
           transform="translate(590.3323,452.9315)"><path
             d="M 0,0 V 215.405"
             style="fill:none;stroke:#0077c0;stroke-width:24.95800018;stroke-linecap:round;stroke-linejoin:round;stroke-miterlimit:10;stroke-dasharray:none;stroke-opacity:1"
             id="path3900"
             inkscape:connector-curvature="0" /></g><g
           id="g3902"
           transform="translate(622.4211,706.0764)"><path
             d="m 0,0 c 0,-17.722 -14.367,-32.089 -32.089,-32.089 -17.722,0 -32.089,14.367 -32.089,32.089 0,17.722 14.367,32.089 32.089,32.089 C -14.367,32.089 0,17.722 0,0 Z"
             style="fill:none;stroke:#0077c0;stroke-width:24.95800018;stroke-linecap:round;stroke-linejoin:round;stroke-miterlimit:10;stroke-dasharray:none;stroke-opacity:1"
             id="path3904"
             inkscape:connector-curvature="0" /></g></g></g><g
       id="g3918" /></g></svg>